<svg id="Layer_1" data-name="Layer 1" xmlns="http://www.w3.org/2000/svg" viewBox="0 0 471.29 250.57"><defs><style>.cls-1{fill:#373e66;}</style></defs><title>Artboard 1</title><path class="cls-1" d="M133.8,89.09a7.62,7.62,0,1,1-6.9-8.28,7.6,7.6,0,0,1,6.9,8.28M135.38,79h0c-11.57-11.69-34.89-14.36-80.21,5.22-.2.08-.85.38-.86.4a4.25,4.25,0,0,0-2,3.57,4.12,4.12,0,0,0,4.22,4.23,8.36,8.36,0,0,0,2-.55c6.66-2.44,39.45-11.37,56.7,4.21.56.46,1.09.93,1.61,1.43s1,1,1.42,1.6c15.55,17.28,6.57,50.06,4.12,56.71a7.59,7.59,0,0,0-.56,2,4.12,4.12,0,0,0,4.22,4.24,4.21,4.21,0,0,0,3.57-2,7.18,7.18,0,0,0,.4-.85c19.66-45.29,17.05-68.62,5.37-80.21"/><path class="cls-1" d="M157.89,67.06a9.9,9.9,0,1,1-9-10.74,9.92,9.92,0,0,1,9,10.74"/><path class="cls-1" d="M112.79,107.46a5.19,5.19,0,1,1-4.71-5.63,5.18,5.18,0,0,1,4.71,5.63"/><path class="cls-1" d="M98.19,120.6a3.9,3.9,0,1,1-3.53-4.22,3.91,3.91,0,0,1,3.53,4.22"/><path class="cls-1" d="M293.11,79.52h-9.32a2.52,2.52,0,0,0-2.33,2.67V113.4H249.22V82.19a2.52,2.52,0,0,0-2.33-2.67h-9.42a2.59,2.59,0,0,0-2.33,2.67v79a2.59,2.59,0,0,0,2.33,2.67h9.42a2.52,2.52,0,0,0,2.33-2.67V128.64h32.24v32.53a2.52,2.52,0,0,0,2.33,2.67h9.32a2.59,2.59,0,0,0,2.33-2.67v-79A2.59,2.59,0,0,0,293.11,79.52Z"/><path class="cls-1" d="M225.24,79.52H184a2.52,2.52,0,0,0-2.33,2.67v79a2.52,2.52,0,0,0,2.33,2.67h9.32a2.59,2.59,0,0,0,2.33-2.67V128.65h24.63A2.59,2.59,0,0,0,222.6,126V116.2a2.59,2.59,0,0,0-2.33-2.67H195.64V94.65h29.6A2.52,2.52,0,0,0,227.56,92V82.19A2.52,2.52,0,0,0,225.24,79.52Z"/><path class="cls-1" d="M323,79.52h-9.43a2.59,2.59,0,0,0-2.33,2.67v79a2.59,2.59,0,0,0,2.33,2.67H323a2.59,2.59,0,0,0,2.33-2.67v-79A2.59,2.59,0,0,0,323,79.52Z"/><rect class="cls-1" x="89.84" y="179.23" width="291.18" height="0.58"/><path class="cls-1" d="M89.84,191.93a.61.61,0,0,1,.62-.61h13a.61.61,0,0,1,.61.61v1.82a.61.61,0,0,1-.61.61H93.18v7.48h8.64a.64.64,0,0,1,.62.62v1.78a.63.63,0,0,1-.62.61H93.18v8.52a.63.63,0,0,1-.62.61h-2.1a.61.61,0,0,1-.62-.61Z"/><path class="cls-1" d="M111.67,198.7a7.82,7.82,0,1,1-7.65,7.77A7.77,7.77,0,0,1,111.67,198.7Zm0,12.56a4.53,4.53,0,0,0,4.43-4.79,4.46,4.46,0,1,0-8.9,0A4.54,4.54,0,0,0,111.67,211.26Z"/><path class="cls-1" d="M122.45,192a.73.73,0,0,1,.71-.71H125a.76.76,0,0,1,.72.71v21.24a.74.74,0,0,1-.72.71h-1.81a.71.71,0,0,1-.71-.71Z"/><path class="cls-1" d="M131.29,192a.73.73,0,0,1,.71-.71h1.81a.76.76,0,0,1,.72.71v12.66l5.76-5.21a1.43,1.43,0,0,1,.94-.46h2.36a.59.59,0,0,1,.39,1l-6,5.7,6.34,7.25c.29.36.23,1-.42,1H141.2a.88.88,0,0,1-.68-.29l-6-7v6.54a.74.74,0,0,1-.72.71H132a.71.71,0,0,1-.71-.71Z"/><path class="cls-1" d="M153.82,198.7a6.66,6.66,0,0,1,6.84,6.86c0,.26,0,.78-.07,1a.69.69,0,0,1-.68.65H149.58a4.37,4.37,0,0,0,4.47,4.08,5.85,5.85,0,0,0,3.66-1.26c.32-.23.61-.33.87.06l.88,1.36c.26.32.39.62-.07,1a8.55,8.55,0,0,1-5.53,1.85c-4.54,0-7.48-3.56-7.48-7.84S149.32,198.7,153.82,198.7Zm3.63,6.15a3.53,3.53,0,0,0-3.69-3.4,3.81,3.81,0,0,0-4,3.4Z"/><path class="cls-1" d="M164.51,192a.73.73,0,0,1,.71-.71H167a.76.76,0,0,1,.72.71v8.22a7.26,7.26,0,0,1,4.34-1.55c4.24,0,5.79,3,5.79,7.06v7.51a.73.73,0,0,1-.71.71h-1.81a.72.72,0,0,1-.72-.71v-7.58c0-2.46-1-3.91-3-3.91a4.45,4.45,0,0,0-3.91,2.17v9.32a.69.69,0,0,1-.75.71h-1.78a.71.71,0,0,1-.71-.71Z"/><path class="cls-1" d="M188.79,198.7a6.66,6.66,0,0,1,6.84,6.86c0,.26,0,.78-.07,1a.7.7,0,0,1-.68.65H184.55a4.37,4.37,0,0,0,4.47,4.08,5.85,5.85,0,0,0,3.66-1.26c.32-.23.61-.33.87.06l.88,1.36c.26.32.39.62-.07,1a8.55,8.55,0,0,1-5.53,1.85c-4.54,0-7.48-3.56-7.48-7.84S184.29,198.7,188.79,198.7Zm3.63,6.15a3.53,3.53,0,0,0-3.69-3.4,3.81,3.81,0,0,0-4,3.4Z"/><path class="cls-1" d="M199.67,192a.74.74,0,0,1,.72-.71h1.81a.76.76,0,0,1,.71.71v21.24a.74.74,0,0,1-.71.71h-1.81a.72.72,0,0,1-.72-.71Z"/><path class="cls-1" d="M207.35,212.82a.61.61,0,0,1-.26-.78l.68-1.39a.67.67,0,0,1,1-.2,6.89,6.89,0,0,0,3.72,1.1c1.27,0,2-.61,2-1.45,0-1-1.14-1.65-3.21-2.59-2.3-1-4-2.27-4-4.73,0-1.88,1.33-4.08,5-4.08a8.4,8.4,0,0,1,4.37,1.1.87.87,0,0,1,.32,1.1l-.51,1a.71.71,0,0,1-1,.29,7.78,7.78,0,0,0-3.2-.75c-1.3,0-1.91.65-1.91,1.33,0,1,1.07,1.56,2.56,2.2,2.75,1.17,4.82,2.17,4.82,5,0,2.33-2,4.37-5.34,4.37A8.68,8.68,0,0,1,207.35,212.82Z"/><path class="cls-1" d="M227.71,198.7a6.66,6.66,0,0,1,6.84,6.86c0,.26,0,.78-.07,1a.7.7,0,0,1-.68.65H223.47a4.37,4.37,0,0,0,4.47,4.08,5.85,5.85,0,0,0,3.66-1.26c.32-.23.61-.33.87.06l.88,1.36c.26.32.39.62-.07,1a8.55,8.55,0,0,1-5.53,1.85c-4.54,0-7.48-3.56-7.48-7.84S223.21,198.7,227.71,198.7Zm3.63,6.15a3.54,3.54,0,0,0-3.69-3.4,3.8,3.8,0,0,0-4,3.4Z"/><path class="cls-1" d="M238,193.65a2.15,2.15,0,0,1,2.13-2.2,2.19,2.19,0,1,1,0,4.37A2.14,2.14,0,0,1,238,193.65Zm.52,6.09a.74.74,0,0,1,.71-.72H241a.76.76,0,0,1,.71.72v13.53a.73.73,0,0,1-.71.71h-1.81a.71.71,0,0,1-.71-.71Z"/><path class="cls-1" d="M246.69,199.74a.74.74,0,0,1,.71-.72h.78a.57.57,0,0,1,.61.46l.46,1.29a6.73,6.73,0,0,1,5-2.07c4.57,0,5.8,3.17,5.8,7.06v7.51a.74.74,0,0,1-.71.71h-1.81a.72.72,0,0,1-.72-.71v-7.64c0-2.43-1-3.85-2.94-3.85a4.53,4.53,0,0,0-3.95,2.17v9.32c0,.49-.26.71-.88.71H247.4a.71.71,0,0,1-.71-.71Z"/><path class="cls-1" d="M264.27,212.82A.61.61,0,0,1,264,212l.68-1.39a.67.67,0,0,1,1-.2,6.93,6.93,0,0,0,3.73,1.1c1.26,0,2-.61,2-1.45,0-1-1.13-1.65-3.2-2.59-2.3-1-4.05-2.27-4.05-4.73,0-1.88,1.33-4.08,4.95-4.08a8.4,8.4,0,0,1,4.37,1.1.88.88,0,0,1,.33,1.1l-.52,1a.7.7,0,0,1-1,.29,7.83,7.83,0,0,0-3.21-.75c-1.29,0-1.91.65-1.91,1.33,0,1,1.07,1.56,2.56,2.2,2.75,1.17,4.82,2.17,4.82,5,0,2.33-2,4.37-5.34,4.37A8.71,8.71,0,0,1,264.27,212.82Z"/><path class="cls-1" d="M279.46,201.78h-1.72a.72.72,0,0,1-.71-.72v-1.32a.69.69,0,0,1,.71-.72h1.72v-4.17a.72.72,0,0,1,.71-.72H282a.7.7,0,0,1,.68.72V199h3.95a.71.71,0,0,1,.72.72v1.32a.75.75,0,0,1-.72.72h-3.95v8c0,1.26.49,1.52,1.2,1.52a5,5,0,0,0,2.4-.71.56.56,0,0,1,.87.32l.59,1.53c.16.38,0,.64-.36.87a9,9,0,0,1-4.15,1.07c-3,0-3.78-1.81-3.78-4.47Z"/><path class="cls-1" d="M290.59,193.65a2.15,2.15,0,0,1,2.14-2.2,2.19,2.19,0,1,1,0,4.37A2.14,2.14,0,0,1,290.59,193.65Zm.52,6.09a.75.75,0,0,1,.71-.72h1.82a.77.77,0,0,1,.71.72v13.53a.74.74,0,0,1-.71.71h-1.82a.72.72,0,0,1-.71-.71Z"/><path class="cls-1" d="M300.15,201.78h-1.72a.72.72,0,0,1-.71-.72v-1.32a.69.69,0,0,1,.71-.72h1.72v-4.17a.72.72,0,0,1,.71-.72h1.84a.7.7,0,0,1,.68.72V199h3.95a.71.71,0,0,1,.72.72v1.32a.75.75,0,0,1-.72.72h-3.95v8c0,1.26.49,1.52,1.2,1.52a5,5,0,0,0,2.4-.71.56.56,0,0,1,.87.32l.58,1.53c.17.38,0,.64-.35.87a9,9,0,0,1-4.15,1.07c-3,0-3.78-1.81-3.78-4.47Z"/><path class="cls-1" d="M311.48,199.74a.77.77,0,0,1,.71-.72H314a.75.75,0,0,1,.72.72v8c0,2.46,1,3.56,2.91,3.56a3.71,3.71,0,0,0,3.5-2.46v-9.06c0-.62.29-.72.84-.72h1.65a.78.78,0,0,1,.75.72v13.53a.75.75,0,0,1-.75.71h-.78c-.38,0-.55-.26-.68-.61l-.38-1.07a6,6,0,0,1-4.73,2c-4.47,0-5.57-3-5.57-6.87Z"/><path class="cls-1" d="M330.19,201.78h-1.71a.73.73,0,0,1-.72-.72v-1.32a.69.69,0,0,1,.72-.72h1.71v-4.17a.73.73,0,0,1,.72-.72h1.84a.7.7,0,0,1,.68.72V199h3.95a.7.7,0,0,1,.71.72v1.32a.74.74,0,0,1-.71.72h-3.95v8c0,1.26.49,1.52,1.2,1.52a5.08,5.08,0,0,0,2.4-.71.56.56,0,0,1,.87.32l.58,1.53c.16.38,0,.64-.35.87a9,9,0,0,1-4.15,1.07c-3,0-3.79-1.81-3.79-4.47Z"/><path class="cls-1" d="M343.34,201.78h-1.72a.72.72,0,0,1-.71-.72v-1.32a.69.69,0,0,1,.71-.72h1.72v-4.17a.72.72,0,0,1,.71-.72h1.85a.7.7,0,0,1,.68.72V199h3.95a.7.7,0,0,1,.71.72v1.32a.74.74,0,0,1-.71.72h-3.95v8c0,1.26.48,1.52,1.2,1.52a5,5,0,0,0,2.39-.71.57.57,0,0,1,.88.32l.58,1.53c.16.38,0,.64-.36.87a8.93,8.93,0,0,1-4.14,1.07c-3,0-3.79-1.81-3.79-4.47Z"/><path class="cls-1" d="M361.25,198.7a6.66,6.66,0,0,1,6.83,6.86,9.08,9.08,0,0,1-.07,1,.69.69,0,0,1-.68.65H357a4.38,4.38,0,0,0,4.47,4.08,5.85,5.85,0,0,0,3.66-1.26c.33-.23.62-.33.88.06l.87,1.36c.26.32.39.62-.07,1a8.53,8.53,0,0,1-5.53,1.85c-4.53,0-7.48-3.56-7.48-7.84S356.75,198.7,361.25,198.7Zm3.62,6.15a3.53,3.53,0,0,0-3.69-3.4,3.79,3.79,0,0,0-4,3.4Z"/><path class="cls-1" d="M372.84,201.78h-1.72a.72.72,0,0,1-.71-.72v-1.32a.69.69,0,0,1,.71-.72h1.72v-4.17a.72.72,0,0,1,.71-.72h1.84a.7.7,0,0,1,.69.72V199H380a.71.71,0,0,1,.71.72v1.32a.75.75,0,0,1-.71.72h-3.95v8c0,1.26.48,1.52,1.19,1.52a5,5,0,0,0,2.4-.71.56.56,0,0,1,.87.32l.59,1.53c.16.38,0,.64-.36.87a9,9,0,0,1-4.14,1.07c-3,0-3.79-1.81-3.79-4.47Z"/></svg>